<svg xmlns="http://www.w3.org/2000/svg" viewBox="0 0 1280 720" width="1280" height="720">
  <defs>
    <linearGradient id="bgGrad" x1="0%" y1="0%" x2="100%" y2="100%">
      <stop offset="0%" style="stop-color:#0f0f23;stop-opacity:1" />
      <stop offset="100%" style="stop-color:#1a1a2e;stop-opacity:1" />
    </linearGradient>
  </defs>
  <!-- Fundo -->
  <rect width="1280" height="720" fill="url(#bgGrad)"/>
  <!-- Header -->
  <rect x="0" y="0" width="1280" height="60" fill="#1e1b4b"/>
  <text x="80" y="38" font-family="Arial" font-size="20" font-weight="bold" fill="#ffffff">SkyCamOS</text>
  <!-- Sidebar -->
  <rect x="0" y="60" width="240" height="660" fill="#16162b"/>
  <!-- Menu items -->
  <rect x="16" y="80" width="208" height="40" rx="8" fill="#4f46e5"/>
  <text x="56" y="107" font-family="Arial" font-size="14" fill="#ffffff">Dashboard</text>
  <text x="56" y="157" font-family="Arial" font-size="14" fill="#a0a0b0">Gravacoes</text>
  <text x="56" y="197" font-family="Arial" font-size="14" fill="#a0a0b0">Eventos</text>
  <text x="56" y="237" font-family="Arial" font-size="14" fill="#a0a0b0">Configuracoes</text>
  <!-- Camera Grid 2x2 -->
  <rect x="260" y="80" width="480" height="300" rx="8" fill="#2d2d44"/>
  <rect x="260" y="80" width="480" height="24" rx="8" fill="#3d3d54"/>
  <text x="280" y="97" font-family="Arial" font-size="12" fill="#ffffff">Camera 1 - Entrada</text>
  <circle cx="720" cy="92" r="6" fill="#22c55e"/>
  <rect x="760" y="80" width="480" height="300" rx="8" fill="#2d2d44"/>
  <rect x="760" y="80" width="480" height="24" rx="8" fill="#3d3d54"/>
  <text x="780" y="97" font-family="Arial" font-size="12" fill="#ffffff">Camera 2 - Estacionamento</text>
  <circle cx="1220" cy="92" r="6" fill="#22c55e"/>
  <rect x="260" y="400" width="480" height="300" rx="8" fill="#2d2d44"/>
  <rect x="260" y="400" width="480" height="24" rx="8" fill="#3d3d54"/>
  <text x="280" y="417" font-family="Arial" font-size="12" fill="#ffffff">Camera 3 - Corredor</text>
  <circle cx="720" cy="412" r="6" fill="#ef4444"/>
  <rect x="760" y="400" width="480" height="300" rx="8" fill="#2d2d44"/>
  <rect x="760" y="400" width="480" height="24" rx="8" fill="#3d3d54"/>
  <text x="780" y="417" font-family="Arial" font-size="12" fill="#ffffff">Camera 4 - Recepcao</text>
  <circle cx="1220" cy="412" r="6" fill="#22c55e"/>
</svg>
