<svg xmlns="http://www.w3.org/2000/svg" viewBox="0 0 750 1334" width="750" height="1334">
  <defs>
    <linearGradient id="bgGrad" x1="0%" y1="0%" x2="100%" y2="100%">
      <stop offset="0%" style="stop-color:#0f0f23;stop-opacity:1" />
      <stop offset="100%" style="stop-color:#1a1a2e;stop-opacity:1" />
    </linearGradient>
  </defs>
  <!-- Fundo -->
  <rect width="750" height="1334" fill="url(#bgGrad)"/>
  <!-- Status bar mobile -->
  <rect x="0" y="0" width="750" height="44" fill="#0f0f23"/>
  <!-- Header -->
  <rect x="0" y="44" width="750" height="56" fill="#1e1b4b"/>
  <text x="24" y="80" font-family="Arial" font-size="18" font-weight="bold" fill="#ffffff">SkyCamOS</text>
  <!-- Menu hamburger -->
  <rect x="680" y="66" width="24" height="3" rx="1" fill="#ffffff"/>
  <rect x="680" y="74" width="24" height="3" rx="1" fill="#ffffff"/>
  <rect x="680" y="82" width="24" height="3" rx="1" fill="#ffffff"/>
  <!-- Camera 1 -->
  <rect x="16" y="116" width="718" height="280" rx="12" fill="#2d2d44"/>
  <rect x="16" y="116" width="718" height="32" rx="12" fill="#3d3d54"/>
  <text x="40" y="139" font-family="Arial" font-size="14" fill="#ffffff">Camera 1 - Entrada Principal</text>
  <circle cx="700" cy="132" r="8" fill="#22c55e"/>
  <!-- Camera 2 -->
  <rect x="16" y="412" width="718" height="280" rx="12" fill="#2d2d44"/>
  <rect x="16" y="412" width="718" height="32" rx="12" fill="#3d3d54"/>
  <text x="40" y="435" font-family="Arial" font-size="14" fill="#ffffff">Camera 2 - Estacionamento</text>
  <circle cx="700" cy="428" r="8" fill="#22c55e"/>
  <!-- Camera 3 -->
  <rect x="16" y="708" width="718" height="280" rx="12" fill="#2d2d44"/>
  <rect x="16" y="708" width="718" height="32" rx="12" fill="#3d3d54"/>
  <text x="40" y="731" font-family="Arial" font-size="14" fill="#ffffff">Camera 3 - Corredor</text>
  <circle cx="700" cy="724" r="8" fill="#ef4444"/>
  <!-- Bottom Navigation -->
  <rect x="0" y="1250" width="750" height="84" fill="#1e1b4b"/>
  <text x="94" y="1300" font-family="Arial" font-size="12" fill="#4f46e5" text-anchor="middle">Dashboard</text>
  <text x="281" y="1300" font-family="Arial" font-size="12" fill="#a0a0b0" text-anchor="middle">Gravacoes</text>
  <text x="469" y="1300" font-family="Arial" font-size="12" fill="#a0a0b0" text-anchor="middle">Eventos</text>
  <text x="656" y="1300" font-family="Arial" font-size="12" fill="#a0a0b0" text-anchor="middle">Config</text>
</svg>
